<?xml version="1.0" ?><svg id="Layer_1" style="enable-background:new 0 0 64 64;" version="1.1" viewBox="0 0 64 64" xml:space="preserve" xmlns="http://www.w3.org/2000/svg" xmlns:xlink="http://www.w3.org/1999/xlink"><g><polygon points="2,2 13.11328,2 13.11328,0 0,0 0,13.86523 2,13.86523  "/><polygon points="2,51.20703 0,51.20703 0,64 13.11328,64 13.11328,62 2,62  "/><polygon points="50.88672,0 50.88672,2 62,2 62,12.79346 64,12.79346 64,0  "/><polygon points="62,62 50.88672,62 50.88672,64 64,64 64,51.20703 62,51.20703  "/><path d="M3.48047,30.4126l-1.57959,1.59521l1.58301,1.58398C11.34619,41.44873,21.67285,45.37744,32,45.37744   s20.65479-3.92871,28.51709-11.78613l1.58252-1.5835l-1.58301-1.59912C44.79199,14.69385,19.20801,14.69385,3.48047,30.4126z    M32,36.67871c-2.58008,0-4.67871-2.09863-4.67871-4.67871c0-2.57959,2.09863-4.67822,4.67871-4.67822   S36.67871,29.42041,36.67871,32C36.67871,34.58008,34.58008,36.67871,32,36.67871z M4.72217,32.00098l0.17578-0.17725   c5.9787-5.97595,13.45886-9.55396,21.23804-10.74786c-3.88928,2.09222-6.53442,6.19843-6.53442,10.92419   c0,4.72662,2.64612,8.83337,6.53656,10.92523c-7.77966-1.19366-15.26044-4.77173-21.23969-10.74805L4.72217,32.00098z    M59.27832,32.00098l-0.17578,0.17578c-5.97949,5.97614-13.46027,9.55438-21.23981,10.74829   c3.8902-2.09198,6.53607-6.19855,6.53607-10.92499c0-4.72546-2.64465-8.83142-6.53357-10.92377   c7.77789,1.19421,15.25708,4.77142,21.23584,10.74548L59.27832,32.00098z"/><path d="M32,29.32178c-1.47705,0-2.67871,1.20166-2.67871,2.67822c0,1.47705,1.20166,2.67871,2.67871,2.67871   S34.67871,33.47705,34.67871,32C34.67871,30.52344,33.47705,29.32178,32,29.32178z"/><rect height="3.00011" transform="matrix(0.80189 -0.59747 0.59747 0.80189 -0.47637 14.05016)" width="2.00001" x="19.94848" y="6.24335"/><rect height="3.00011" transform="matrix(0.80189 -0.59747 0.59747 0.80189 -2.64061 17.14518)" width="2.00001" x="23.53344" y="11.05439"/><rect height="2.5" width="2" x="31" y="10.54053"/><rect height="3" width="2" x="31" y="4.54053"/><rect height="2.00001" transform="matrix(0.59765 -0.80175 0.80175 0.59765 5.81384 36.69411)" width="3.00011" x="37.96698" y="11.55444"/><rect height="2.00001" transform="matrix(0.59765 -0.80175 0.80175 0.59765 11.1135 37.63266)" width="3.00011" x="41.55194" y="6.7434"/><rect height="3.00011" transform="matrix(0.80189 -0.59747 0.59747 0.80189 -25.08267 36.86729)" width="2.00001" x="42.052" y="54.75653"/><rect height="3.00011" transform="matrix(0.80189 -0.59747 0.59747 0.80189 -22.91843 33.77227)" width="2.00001" x="38.46704" y="49.9455"/><rect height="3" width="2" x="31" y="56.45947"/><rect height="2.5" width="2" x="31" y="50.95947"/><rect height="2.00001" transform="matrix(0.59765 -0.80175 0.80175 0.59765 -36.67542 39.43017)" width="3.00011" x="19.44843" y="55.25659"/><rect height="2.00001" transform="matrix(0.59765 -0.80175 0.80175 0.59765 -31.37576 40.36873)" width="3.00011" x="23.03339" y="50.44555"/></g></svg>