<svg viewBox="0 0 1024.0243 1089.841" xmlns="http://www.w3.org/2000/svg"><path d="M780.36 276.117c24.738 24.756 25.25 64.725 1.135 88.84l-13.058 13.076 120.91 119.076-265.308 255.573L505.907 630.81 107.71 1029.01c-24.113 24.114-64.082 23.604-88.82-1.134-24.736-24.756-25.247-64.725-1.133-88.84L417.352 539.44 317.344 436.258l250.7-255.574 109.74 108.058 13.757-13.74c24.115-24.113 64.084-23.62 88.82 1.116zM557.236 58.11c19.692 19.692 20.107 51.516.907 70.697L265.678 421.27c-19.18 19.2-51.005 18.785-70.697-.906-19.69-19.692-20.087-51.497-.887-70.697L486.538 57.222c19.2-19.2 51.005-18.784 70.697.888zm451.754 451.754c19.69 19.692 20.087 51.497.906 70.697L717.432 873.026c-19.2 19.18-51.005 18.784-70.697-.907-19.692-19.692-20.088-51.497-.907-70.697l292.464-292.463c19.2-19.18 51.005-18.784 70.697.907z"/></svg>