<svg viewBox="0 0 1024 1089.841" xmlns="http://www.w3.org/2000/svg"><path d="M685.824 546.224c24.68-47.207 38.608-100.537 38.608-157.004 0-192.89-162.2-349.31-362.197-349.31C162.22 39.91 0 196.33 0 389.22c0 192.872 162.22 349.29 362.235 349.29 76.366 0 147.233-22.83 205.627-61.777l36.68 119.49h126.88v132.59h132.57v121.134H1024V888.805l-338.178-342.58zM310.17 277.307c35.7 0 64.67 28.952 64.67 64.668s-28.97 64.668-64.67 64.668c-35.716 0-64.667-28.952-64.667-64.668s28.952-64.668 64.668-64.668z"/></svg>