<svg viewBox="0 0 1024 1089.841" xmlns="http://www.w3.org/2000/svg"><path d="M744.917 750.208c-24.246-48.284-56.73-85.286-93.696-111.044-31.445-21.903-65.953-35.698-101.103-41.405-35.3-5.708-71.528-3.403-106.225 6.897-65.972 19.597-126.35 68.467-165.28 146.723 4.422-.756 8.976-1.172 13.606-1.172h452.7zm-493.744-484.41h521.752c11.622-43.144 17.896-92.373 17.31-147.762H233.787c-.567 55.37 5.726 104.6 17.386 147.762zM78.9 32.92h866.183c4.158 0 7.578 3.836 7.578 8.542v68.032c0 4.706-3.42 8.542-7.577 8.542h-79.75c1.872 193.438-71.51 325.307-171.213 394.795-18.577 12.946-38.117 23.718-58.28 32.297 20.163 8.6 39.703 19.37 58.28 32.315 99.63 69.43 172.973 201.15 171.214 394.342h79.75c4.157 0 7.577 3.855 7.577 8.56v68.014c0 4.706-3.42 8.56-7.577 8.56H78.9c-4.177 0-7.58-3.854-7.58-8.56v-68.013c0-4.706 3.403-8.56 7.58-8.56h79.73c-2.136-229.534 101.424-371.948 229.59-426.66-128.242-54.708-231.86-197.293-229.59-427.09H78.9c-4.177 0-7.58-3.836-7.58-8.542V41.46c0-4.705 3.403-8.54 7.58-8.54z"/></svg>