<svg viewBox="0 0 1024 1089.841" xmlns="http://www.w3.org/2000/svg"><path d="M790.253 971.786c1.625-165.488-57.903-276.098-139.013-332.62-31.446-21.904-65.954-35.7-101.104-41.406-35.3-5.707-71.528-3.402-106.225 6.898-114.482 34.016-212.146 156.134-210.124 367.13h556.467zM237.81 195.613h548.455c2.872-24.36 4.27-50.212 3.987-77.557H233.804c-.283 27.345 1.115 53.197 4.006 77.557zM78.92 971.786h79.73c-2.135-229.533 101.425-371.947 229.57-426.658-128.24-54.71-231.837-197.294-229.57-427.09h-79.73c-4.176 0-7.578-3.837-7.578-8.543V41.463c0-4.706 3.402-8.542 7.578-8.542h866.184c4.158 0 7.578 3.837 7.578 8.543v68.032c0 4.706-3.42 8.542-7.578 8.542h-79.75c1.872 193.438-71.51 325.307-171.213 394.795-18.578 12.945-38.118 23.717-58.3 32.296 20.182 8.6 39.722 19.37 58.3 32.315 99.63 69.43 172.972 201.15 171.213 394.342h79.75c4.157 0 7.577 3.855 7.577 8.56v68.014c0 4.705-3.42 8.56-7.578 8.56H78.918c-4.176 0-7.578-3.855-7.578-8.56v-68.014c0-4.706 3.402-8.56 7.578-8.56z"/></svg>